<svg version="1.1" xmlns="http://www.w3.org/2000/svg" viewBox="-276.6042158896214 -731.0694242537114 759.2133304585261 1567.0861449960394" fill="none" stroke="black" stroke-width="0.6%" vector-effect="non-scaling-stroke">
    <path d="M 343.71386 -687.95696 A 765 166.67524 102.29111 0 1 442.68334 -590.63322 A 765 166.67524 102.29111 1 1 384.54254 -699.14679 A 765 166.67524 102.29111 0 1 442.68334 -590.63322 A 765 166.67524 102.29111 0 1 58.83801 795.7835 A 765 166.67524 102.29111 1 1 442.68334 -590.63322 A 765 166.67524 102.29111 0 1 26.36478 768.62318" />
    <path d="M 30.97533 780.4106 A 765 166.67524 282.29111 0 0 152.08269 720.2527 A 765 166.67524 282.29111 1 0 54.06998 794.74467 L 58.83801 795.7835" />
    <path d="M 379.77451 -700.18561 A 765 166.67524 282.29111 1 0 152.08269 720.2527 A 765 166.67524 282.29111 0 0 352.81008 -696.75804" />
    <path d="M 221.69027 -451.70319 A 690.9233 150.53569 282.29111 0 0 163.12928 656.12599 A 690.9233 150.53569 282.29111 1 0 62.55374 718.18176 A 690.9233 150.53569 282.29111 0 0 163.12928 656.12599 A 690.9233 150.53569 282.29111 0 0 355.63929 -627.03272 A 690.9233 150.53569 282.29111 1 0 163.12928 656.12599 A 690.9233 150.53569 282.29111 1 0 221.69027 -451.70319 Z" />
    <path d="M 216.92225 -513.58837 A 775 168.854 282.29111 0 0 151.23512 729.04974 A 775 168.854 282.29111 1 0 19.2739 777.38121 L 36.73829 806.12699 A 800 174.3009 102.29111 1 1 471.86624 -615.71101 A 800 174.3009 102.29111 1 1 240.76239 -526.48677 A 800 174.3009 102.29111 0 1 471.86624 -615.71101 A 800 174.3009 102.29111 1 1 368.7487 -717.74626 A 800 174.3009 102.29111 0 1 471.86624 -615.71101 A 800 174.3009 102.29111 0 1 36.73829 806.12699" />
    <path d="M 340.90899 -698.871 A 775 168.854 282.29111 1 0 151.23512 729.04974 A 775 168.854 282.29111 1 0 216.92225 -513.58837" />
    <path d="M 240.76239 -519.24976 A 790 172.12214 102.29111 0 1 468.97745 -607.3587 A 790 172.12214 102.29111 1 1 367.14887 -708.11851 A 790 172.12214 102.29111 0 1 468.97745 -607.3587 A 790 172.12214 102.29111 0 1 39.28859 796.70633 A 790 172.12214 102.29111 1 1 468.97745 -607.3587 A 790 172.12214 102.29111 1 1 240.76239 -519.24976 Z" />
    <path d="M 379.77451 -700.18561 L 384.54254 -699.14679" />
    <path d="M 272.50353 -618.93939 A 750.0000000000001 750.0000000000001 0 0 0 -9.68021 676.23761" />
    <path d="M 340.90899 -698.871 L 368.7487 -717.74626" />
</svg>